<mxfile host="app.diagrams.net" agent="Mozilla/5.0 (Windows NT 10.0; Win64; x64) AppleWebKit/537.36 (KHTML, like Gecko) Chrome/133.0.0.0 Safari/537.36" version="26.0.16">
  <diagram id="C5RBs43oDa-KdzZeNtuy" name="Page-1">
    <mxGraphModel dx="3230" dy="2415" grid="1" gridSize="10" guides="1" tooltips="1" connect="1" arrows="1" fold="1" page="1" pageScale="1" pageWidth="827" pageHeight="1169" math="0" shadow="0">
      <root>
        <mxCell id="WIyWlLk6GJQsqaUBKTNV-0" />
        <mxCell id="WIyWlLk6GJQsqaUBKTNV-1" parent="WIyWlLk6GJQsqaUBKTNV-0" />
        <mxCell id="j119phLv1ULHg8OeWUtz-34" value="DefaultLogicFactory" style="swimlane;childLayout=stackLayout;horizontal=1;startSize=50;horizontalStack=0;rounded=1;fontSize=14;fontStyle=0;strokeWidth=2;resizeParent=0;resizeLast=1;shadow=0;dashed=0;align=center;arcSize=4;whiteSpace=wrap;html=1;" vertex="1" parent="WIyWlLk6GJQsqaUBKTNV-1">
          <mxGeometry x="1220" y="-180" width="280" height="200" as="geometry">
            <mxRectangle x="360" y="160" width="170" height="50" as="alternateBounds" />
          </mxGeometry>
        </mxCell>
        <mxCell id="j119phLv1ULHg8OeWUtz-35" value="+ 构造方法 (List&amp;lt;ILogicFilter&amp;lt;?&amp;gt;&amp;gt;)&lt;div&gt;&lt;span style=&quot;white-space: pre;&quot;&gt;&#x9;&lt;/span&gt;: 读取所有类型为ILoigcFilter的bean&lt;br&gt;&lt;/div&gt;&lt;div&gt;&lt;span style=&quot;white-space: pre;&quot;&gt;&#x9;&lt;/span&gt;: 将通过注解LogicStrategy注册过的&lt;br&gt;&lt;span style=&quot;white-space: pre;&quot;&gt;&#x9;&lt;/span&gt;: bean纳入工厂中&lt;br&gt;&lt;/div&gt;&lt;div&gt;&lt;br&gt;&lt;/div&gt;&lt;div&gt;+ openLogicFilter :&amp;nbsp;&lt;/div&gt;&lt;div&gt;&lt;span style=&quot;white-space: pre;&quot;&gt;&#x9;&lt;/span&gt;: 为构造方法构建的map做类型转化&lt;br&gt;&lt;/div&gt;" style="align=left;strokeColor=none;fillColor=none;spacingLeft=4;spacingRight=4;fontSize=12;verticalAlign=top;resizable=0;rotatable=0;part=1;html=1;whiteSpace=wrap;" vertex="1" parent="j119phLv1ULHg8OeWUtz-34">
          <mxGeometry y="50" width="280" height="150" as="geometry" />
        </mxCell>
        <mxCell id="j119phLv1ULHg8OeWUtz-57" style="edgeStyle=orthogonalEdgeStyle;rounded=0;orthogonalLoop=1;jettySize=auto;html=1;" edge="1" parent="WIyWlLk6GJQsqaUBKTNV-1" source="j119phLv1ULHg8OeWUtz-40" target="j119phLv1ULHg8OeWUtz-54">
          <mxGeometry relative="1" as="geometry" />
        </mxCell>
        <mxCell id="j119phLv1ULHg8OeWUtz-60" value="注释" style="edgeLabel;html=1;align=center;verticalAlign=middle;resizable=0;points=[];" vertex="1" connectable="0" parent="j119phLv1ULHg8OeWUtz-57">
          <mxGeometry x="-0.255" y="1" relative="1" as="geometry">
            <mxPoint as="offset" />
          </mxGeometry>
        </mxCell>
        <mxCell id="j119phLv1ULHg8OeWUtz-58" style="edgeStyle=orthogonalEdgeStyle;rounded=0;orthogonalLoop=1;jettySize=auto;html=1;entryX=0.5;entryY=0;entryDx=0;entryDy=0;" edge="1" parent="WIyWlLk6GJQsqaUBKTNV-1" source="j119phLv1ULHg8OeWUtz-40" target="j119phLv1ULHg8OeWUtz-50">
          <mxGeometry relative="1" as="geometry" />
        </mxCell>
        <mxCell id="j119phLv1ULHg8OeWUtz-59" value="注释" style="edgeLabel;html=1;align=center;verticalAlign=middle;resizable=0;points=[];" vertex="1" connectable="0" parent="j119phLv1ULHg8OeWUtz-58">
          <mxGeometry x="-0.009" y="1" relative="1" as="geometry">
            <mxPoint as="offset" />
          </mxGeometry>
        </mxCell>
        <mxCell id="j119phLv1ULHg8OeWUtz-40" value="LogicStrategy&lt;div&gt;@interface&lt;/div&gt;" style="swimlane;childLayout=stackLayout;horizontal=1;startSize=50;horizontalStack=0;rounded=1;fontSize=14;fontStyle=0;strokeWidth=2;resizeParent=0;resizeLast=1;shadow=0;dashed=0;align=center;arcSize=0;whiteSpace=wrap;html=1;" vertex="1" collapsed="1" parent="WIyWlLk6GJQsqaUBKTNV-1">
          <mxGeometry x="1295" y="-480" width="130" height="50" as="geometry">
            <mxRectangle x="10" y="130" width="290" height="190" as="alternateBounds" />
          </mxGeometry>
        </mxCell>
        <mxCell id="j119phLv1ULHg8OeWUtz-41" value="+ DefaultLogicFactory.LogicModel logicModel()&lt;div&gt;&lt;span style=&quot;white-space: pre;&quot;&gt;&#x9;&lt;/span&gt;: 标记这是什么种类的过滤器&lt;/div&gt;&lt;div&gt;&lt;br&gt;&lt;/div&gt;&lt;div&gt;这个注解是用于注册实现了ILogicFilter接口的过滤器类&lt;/div&gt;" style="align=left;strokeColor=none;fillColor=none;spacingLeft=4;spacingRight=4;fontSize=12;verticalAlign=top;resizable=0;rotatable=0;part=1;html=1;whiteSpace=wrap;" vertex="1" parent="j119phLv1ULHg8OeWUtz-40">
          <mxGeometry y="50" width="290" height="140" as="geometry" />
        </mxCell>
        <mxCell id="j119phLv1ULHg8OeWUtz-73" style="edgeStyle=orthogonalEdgeStyle;rounded=0;orthogonalLoop=1;jettySize=auto;html=1;entryX=1;entryY=0.5;entryDx=0;entryDy=0;" edge="1" parent="WIyWlLk6GJQsqaUBKTNV-1" source="j119phLv1ULHg8OeWUtz-50" target="j119phLv1ULHg8OeWUtz-65">
          <mxGeometry relative="1" as="geometry" />
        </mxCell>
        <mxCell id="j119phLv1ULHg8OeWUtz-74" value="实现" style="edgeLabel;html=1;align=center;verticalAlign=middle;resizable=0;points=[];" vertex="1" connectable="0" parent="j119phLv1ULHg8OeWUtz-73">
          <mxGeometry x="0.0201" y="1" relative="1" as="geometry">
            <mxPoint as="offset" />
          </mxGeometry>
        </mxCell>
        <mxCell id="j119phLv1ULHg8OeWUtz-50" value="RuleBlackListFilter" style="swimlane;childLayout=stackLayout;horizontal=1;startSize=50;horizontalStack=0;rounded=1;fontSize=14;fontStyle=0;strokeWidth=2;resizeParent=0;resizeLast=1;shadow=0;dashed=0;align=center;arcSize=4;whiteSpace=wrap;html=1;" vertex="1" parent="WIyWlLk6GJQsqaUBKTNV-1">
          <mxGeometry x="1560" y="-370" width="160" height="120" as="geometry">
            <mxRectangle x="620" y="-10" width="160" height="50" as="alternateBounds" />
          </mxGeometry>
        </mxCell>
        <mxCell id="j119phLv1ULHg8OeWUtz-51" value="+Attribute1&#xa;+Attribute2&#xa;+Attribute3" style="align=left;strokeColor=none;fillColor=none;spacingLeft=4;spacingRight=4;fontSize=12;verticalAlign=top;resizable=0;rotatable=0;part=1;html=1;whiteSpace=wrap;" vertex="1" parent="j119phLv1ULHg8OeWUtz-50">
          <mxGeometry y="50" width="160" height="70" as="geometry" />
        </mxCell>
        <mxCell id="j119phLv1ULHg8OeWUtz-53" style="edgeStyle=orthogonalEdgeStyle;rounded=0;orthogonalLoop=1;jettySize=auto;html=1;entryX=0.5;entryY=0;entryDx=0;entryDy=0;" edge="1" parent="WIyWlLk6GJQsqaUBKTNV-1" source="j119phLv1ULHg8OeWUtz-51" target="j119phLv1ULHg8OeWUtz-34">
          <mxGeometry relative="1" as="geometry">
            <Array as="points">
              <mxPoint x="1640" y="-220" />
              <mxPoint x="1360" y="-220" />
            </Array>
          </mxGeometry>
        </mxCell>
        <mxCell id="j119phLv1ULHg8OeWUtz-62" value="被纳入工厂管理" style="edgeLabel;html=1;align=center;verticalAlign=middle;resizable=0;points=[];" vertex="1" connectable="0" parent="j119phLv1ULHg8OeWUtz-53">
          <mxGeometry x="0.0064" y="-1" relative="1" as="geometry">
            <mxPoint as="offset" />
          </mxGeometry>
        </mxCell>
        <mxCell id="j119phLv1ULHg8OeWUtz-54" value="RuleWeightLogic&lt;span style=&quot;background-color: transparent; color: light-dark(rgb(0, 0, 0), rgb(255, 255, 255));&quot;&gt;Filter&lt;/span&gt;" style="swimlane;childLayout=stackLayout;horizontal=1;startSize=50;horizontalStack=0;rounded=1;fontSize=14;fontStyle=0;strokeWidth=2;resizeParent=0;resizeLast=1;shadow=0;dashed=0;align=center;arcSize=4;whiteSpace=wrap;html=1;" vertex="1" parent="WIyWlLk6GJQsqaUBKTNV-1">
          <mxGeometry x="1050" y="-370" width="160" height="120" as="geometry">
            <mxRectangle x="620" y="-10" width="160" height="50" as="alternateBounds" />
          </mxGeometry>
        </mxCell>
        <mxCell id="j119phLv1ULHg8OeWUtz-55" value="+Attribute1&#xa;+Attribute2&#xa;+Attribute3" style="align=left;strokeColor=none;fillColor=none;spacingLeft=4;spacingRight=4;fontSize=12;verticalAlign=top;resizable=0;rotatable=0;part=1;html=1;whiteSpace=wrap;" vertex="1" parent="j119phLv1ULHg8OeWUtz-54">
          <mxGeometry y="50" width="160" height="70" as="geometry" />
        </mxCell>
        <mxCell id="j119phLv1ULHg8OeWUtz-56" style="edgeStyle=orthogonalEdgeStyle;rounded=0;orthogonalLoop=1;jettySize=auto;html=1;entryX=0.5;entryY=0;entryDx=0;entryDy=0;" edge="1" parent="WIyWlLk6GJQsqaUBKTNV-1" source="j119phLv1ULHg8OeWUtz-55" target="j119phLv1ULHg8OeWUtz-34">
          <mxGeometry relative="1" as="geometry">
            <Array as="points">
              <mxPoint x="1130" y="-220" />
              <mxPoint x="1360" y="-220" />
            </Array>
          </mxGeometry>
        </mxCell>
        <mxCell id="j119phLv1ULHg8OeWUtz-61" value="被纳入工厂管理" style="edgeLabel;html=1;align=center;verticalAlign=middle;resizable=0;points=[];" vertex="1" connectable="0" parent="j119phLv1ULHg8OeWUtz-56">
          <mxGeometry x="-0.1368" relative="1" as="geometry">
            <mxPoint as="offset" />
          </mxGeometry>
        </mxCell>
        <mxCell id="j119phLv1ULHg8OeWUtz-63" value="IRaffleStrategy" style="swimlane;childLayout=stackLayout;horizontal=1;startSize=50;horizontalStack=0;rounded=1;fontSize=14;fontStyle=0;strokeWidth=2;resizeParent=0;resizeLast=1;shadow=0;dashed=0;align=center;arcSize=4;whiteSpace=wrap;html=1;" vertex="1" parent="WIyWlLk6GJQsqaUBKTNV-1">
          <mxGeometry x="640" y="-277" width="270" height="190" as="geometry" />
        </mxCell>
        <mxCell id="j119phLv1ULHg8OeWUtz-64" value="+ performRaffle&lt;div&gt;&lt;span style=&quot;white-space: pre;&quot;&gt;&#x9;&lt;/span&gt;: 执行一次带有过滤的抽奖&lt;br&gt;&lt;div&gt;&lt;span style=&quot;white-space: pre;&quot;&gt;&#x9;&lt;/span&gt;: param RaffleFactorEntity 抽奖因子&lt;/div&gt;&lt;div&gt;&lt;span style=&quot;white-space: pre;&quot;&gt;&#x9;&lt;/span&gt;: return RaffleAwardEntity 抽奖奖品实体&amp;nbsp;&amp;nbsp;&lt;/div&gt;&lt;/div&gt;" style="align=left;strokeColor=none;fillColor=none;spacingLeft=4;spacingRight=4;fontSize=12;verticalAlign=top;resizable=0;rotatable=0;part=1;html=1;whiteSpace=wrap;" vertex="1" parent="j119phLv1ULHg8OeWUtz-63">
          <mxGeometry y="50" width="270" height="140" as="geometry" />
        </mxCell>
        <mxCell id="j119phLv1ULHg8OeWUtz-65" value="ILogicfilter" style="swimlane;childLayout=stackLayout;horizontal=1;startSize=50;horizontalStack=0;rounded=1;fontSize=14;fontStyle=0;strokeWidth=2;resizeParent=0;resizeLast=1;shadow=0;dashed=0;align=center;arcSize=4;whiteSpace=wrap;html=1;" vertex="1" parent="WIyWlLk6GJQsqaUBKTNV-1">
          <mxGeometry x="1285" y="-370" width="160" height="120" as="geometry" />
        </mxCell>
        <mxCell id="j119phLv1ULHg8OeWUtz-66" value="+Attribute1&#xa;+Attribute2&#xa;+Attribute3" style="align=left;strokeColor=none;fillColor=none;spacingLeft=4;spacingRight=4;fontSize=12;verticalAlign=top;resizable=0;rotatable=0;part=1;html=1;whiteSpace=wrap;" vertex="1" parent="j119phLv1ULHg8OeWUtz-65">
          <mxGeometry y="50" width="160" height="70" as="geometry" />
        </mxCell>
        <mxCell id="j119phLv1ULHg8OeWUtz-71" style="edgeStyle=orthogonalEdgeStyle;rounded=0;orthogonalLoop=1;jettySize=auto;html=1;entryX=0.019;entryY=0.14;entryDx=0;entryDy=0;entryPerimeter=0;" edge="1" parent="WIyWlLk6GJQsqaUBKTNV-1" source="j119phLv1ULHg8OeWUtz-54" target="j119phLv1ULHg8OeWUtz-66">
          <mxGeometry relative="1" as="geometry" />
        </mxCell>
        <mxCell id="j119phLv1ULHg8OeWUtz-72" value="实现" style="edgeLabel;html=1;align=center;verticalAlign=middle;resizable=0;points=[];" vertex="1" connectable="0" parent="j119phLv1ULHg8OeWUtz-71">
          <mxGeometry x="-0.0366" y="1" relative="1" as="geometry">
            <mxPoint as="offset" />
          </mxGeometry>
        </mxCell>
        <mxCell id="j119phLv1ULHg8OeWUtz-80" value="AbstractRaffleStrategy&lt;div&gt;abstract&lt;/div&gt;" style="swimlane;childLayout=stackLayout;horizontal=1;startSize=50;horizontalStack=0;rounded=1;fontSize=14;fontStyle=0;strokeWidth=2;resizeParent=0;resizeLast=1;shadow=0;dashed=0;align=center;arcSize=4;whiteSpace=wrap;html=1;" vertex="1" parent="WIyWlLk6GJQsqaUBKTNV-1">
          <mxGeometry x="270" y="-290" width="260" height="215" as="geometry" />
        </mxCell>
        <mxCell id="j119phLv1ULHg8OeWUtz-81" value="+ performRaffle&lt;div&gt;&lt;br&gt;&lt;/div&gt;&lt;div&gt;+ doCheckRaffleBeforeLogic&amp;nbsp; (abstract)&lt;/div&gt;&lt;div&gt;&lt;span style=&quot;white-space: pre;&quot;&gt;&#x9;&lt;/span&gt;: 进行规则过滤&lt;br&gt;&lt;/div&gt;" style="align=left;strokeColor=none;fillColor=none;spacingLeft=4;spacingRight=4;fontSize=12;verticalAlign=top;resizable=0;rotatable=0;part=1;html=1;whiteSpace=wrap;" vertex="1" parent="j119phLv1ULHg8OeWUtz-80">
          <mxGeometry y="50" width="260" height="165" as="geometry" />
        </mxCell>
        <mxCell id="j119phLv1ULHg8OeWUtz-85" style="edgeStyle=orthogonalEdgeStyle;rounded=0;orthogonalLoop=1;jettySize=auto;html=1;" edge="1" parent="WIyWlLk6GJQsqaUBKTNV-1" source="j119phLv1ULHg8OeWUtz-80" target="j119phLv1ULHg8OeWUtz-63">
          <mxGeometry relative="1" as="geometry" />
        </mxCell>
        <mxCell id="j119phLv1ULHg8OeWUtz-88" value="实现" style="edgeLabel;html=1;align=center;verticalAlign=middle;resizable=0;points=[];" vertex="1" connectable="0" parent="j119phLv1ULHg8OeWUtz-85">
          <mxGeometry x="-0.0287" relative="1" as="geometry">
            <mxPoint as="offset" />
          </mxGeometry>
        </mxCell>
        <mxCell id="j119phLv1ULHg8OeWUtz-93" style="edgeStyle=orthogonalEdgeStyle;rounded=0;orthogonalLoop=1;jettySize=auto;html=1;" edge="1" parent="WIyWlLk6GJQsqaUBKTNV-1" source="j119phLv1ULHg8OeWUtz-89" target="j119phLv1ULHg8OeWUtz-80">
          <mxGeometry relative="1" as="geometry" />
        </mxCell>
        <mxCell id="j119phLv1ULHg8OeWUtz-94" value="继承" style="edgeLabel;html=1;align=center;verticalAlign=middle;resizable=0;points=[];" vertex="1" connectable="0" parent="j119phLv1ULHg8OeWUtz-93">
          <mxGeometry x="-0.0331" y="-1" relative="1" as="geometry">
            <mxPoint as="offset" />
          </mxGeometry>
        </mxCell>
        <mxCell id="j119phLv1ULHg8OeWUtz-89" value="AbstractRaffleStrategy" style="swimlane;childLayout=stackLayout;horizontal=1;startSize=50;horizontalStack=0;rounded=1;fontSize=14;fontStyle=0;strokeWidth=2;resizeParent=0;resizeLast=1;shadow=0;dashed=0;align=center;arcSize=4;whiteSpace=wrap;html=1;" vertex="1" parent="WIyWlLk6GJQsqaUBKTNV-1">
          <mxGeometry x="-60" y="-290" width="260" height="215" as="geometry" />
        </mxCell>
        <mxCell id="j119phLv1ULHg8OeWUtz-90" value="+ performRaffle&lt;div&gt;&lt;br&gt;&lt;/div&gt;&lt;div&gt;+ doCheckRaffleBeforeLogic&amp;nbsp; (abstract)&lt;/div&gt;&lt;div&gt;&lt;span style=&quot;white-space: pre;&quot;&gt;&#x9;&lt;/span&gt;: 进行规则过滤&lt;/div&gt;" style="align=left;strokeColor=none;fillColor=none;spacingLeft=4;spacingRight=4;fontSize=12;verticalAlign=top;resizable=0;rotatable=0;part=1;html=1;whiteSpace=wrap;" vertex="1" parent="j119phLv1ULHg8OeWUtz-89">
          <mxGeometry y="50" width="260" height="165" as="geometry" />
        </mxCell>
        <mxCell id="j119phLv1ULHg8OeWUtz-101" value="Entity" style="swimlane;childLayout=stackLayout;horizontal=1;startSize=50;horizontalStack=0;rounded=1;fontSize=14;fontStyle=0;strokeWidth=2;resizeParent=0;resizeLast=1;shadow=0;dashed=0;align=center;arcSize=4;whiteSpace=wrap;html=1;" vertex="1" parent="WIyWlLk6GJQsqaUBKTNV-1">
          <mxGeometry x="-50" y="-490" width="160" height="120" as="geometry" />
        </mxCell>
        <mxCell id="j119phLv1ULHg8OeWUtz-102" value="+" style="align=left;strokeColor=none;fillColor=none;spacingLeft=4;spacingRight=4;fontSize=12;verticalAlign=top;resizable=0;rotatable=0;part=1;html=1;whiteSpace=wrap;" vertex="1" parent="j119phLv1ULHg8OeWUtz-101">
          <mxGeometry y="50" width="160" height="70" as="geometry" />
        </mxCell>
        <mxCell id="j119phLv1ULHg8OeWUtz-103" value="RaffleAwardEntity" style="swimlane;childLayout=stackLayout;horizontal=1;startSize=50;horizontalStack=0;rounded=1;fontSize=14;fontStyle=0;strokeWidth=2;resizeParent=0;resizeLast=1;shadow=0;dashed=0;align=center;arcSize=4;whiteSpace=wrap;html=1;" vertex="1" parent="WIyWlLk6GJQsqaUBKTNV-1">
          <mxGeometry x="400" width="310" height="260" as="geometry" />
        </mxCell>
        <mxCell id="j119phLv1ULHg8OeWUtz-104" value="奖品的必要信息, 只有显示相关的信息, 这个实体类主要是帮助用户知道自己抽中了什么&lt;div&gt;&lt;br&gt;&lt;/div&gt;&lt;div&gt;: &lt;b&gt;是performRaffle方法的返回&lt;/b&gt;&lt;/div&gt;&lt;div&gt;&lt;b&gt;&lt;br&gt;&lt;/b&gt;&lt;/div&gt;&lt;div&gt;&lt;div style=&quot;&quot;&gt;&lt;b&gt;&amp;nbsp; &amp;nbsp;&lt;/b&gt; /** 奖品ID*/&lt;/div&gt;&lt;div style=&quot;&quot;&gt;&amp;nbsp; &amp;nbsp; private Integer awardId;&lt;/div&gt;&lt;div style=&quot;&quot;&gt;&amp;nbsp; &amp;nbsp; /** 奖品种类key, 用于匹配奖品种类*/&lt;/div&gt;&lt;div style=&quot;&quot;&gt;&amp;nbsp; &amp;nbsp; private String awardKey;&lt;/div&gt;&lt;div style=&quot;&quot;&gt;&amp;nbsp; &amp;nbsp; /** 奖品的配置参数, 如奖品模型类型等*/&lt;/div&gt;&lt;div style=&quot;&quot;&gt;&amp;nbsp; &amp;nbsp; private String awardConfig;&lt;/div&gt;&lt;div style=&quot;&quot;&gt;&amp;nbsp; &amp;nbsp; /** 奖品描述*/&lt;/div&gt;&lt;div style=&quot;&quot;&gt;&amp;nbsp; &amp;nbsp; private String awardDesc;&lt;/div&gt;&lt;div style=&quot;font-weight: bold;&quot;&gt;&lt;br&gt;&lt;/div&gt;&lt;/div&gt;&lt;div&gt;&lt;span style=&quot;color: rgba(0, 0, 0, 0); font-family: monospace; font-size: 0px; text-wrap-mode: nowrap;&quot;&gt;%3CmxGraphModel%3E%3Croot%3E%3CmxCell%20id%3D%220%22%2F%3E%3CmxCell%20id%3D%221%22%20parent%3D%220%22%2F%3E%3CmxCell%20id%3D%222%22%20value%3D%22Entity%22%20style%3D%22swimlane%3BchildLayout%3DstackLayout%3Bhorizontal%3D1%3BstartSize%3D50%3BhorizontalStack%3D0%3Brounded%3D1%3BfontSize%3D14%3BfontStyle%3D0%3BstrokeWidth%3D2%3BresizeParent%3D0%3BresizeLast%3D1%3Bshadow%3D0%3Bdashed%3D0%3Balign%3Dcenter%3BarcSize%3D4%3BwhiteSpace%3Dwrap%3Bhtml%3D1%3B%22%20vertex%3D%221%22%20parent%3D%221%22%3E%3CmxGeometry%20x%3D%22160%22%20y%3D%2280%22%20width%3D%22160%22%20height%3D%22120%22%20as%3D%22geometry%22%2F%3E%3C%2FmxCell%3E%3CmxCell%20id%3D%223%22%20value%3D%22%2B%22%20style%3D%22align%3Dleft%3BstrokeColor%3Dnone%3BfillColor%3Dnone%3BspacingLeft%3D4%3BspacingRight%3D4%3BfontSize%3D12%3BverticalAlign%3Dtop%3Bresizable%3D0%3Brotatable%3D0%3Bpart%3D1%3Bhtml%3D1%3BwhiteSpace%3Dwrap%3B%22%20vertex%3D%221%22%20parent%3D%222%22%3E%3CmxGeometry%20y%3D%2250%22%20width%3D%22160%22%20height%3D%2270%22%20as%3D%22geometry%22%2F%3E%3C%2FmxCell%3E%3C%2Froot%3E%3C%2FmxGraphModel%3E&lt;/span&gt;&lt;b&gt;&lt;/b&gt;&lt;/div&gt;" style="align=left;strokeColor=none;fillColor=none;spacingLeft=4;spacingRight=4;fontSize=12;verticalAlign=top;resizable=0;rotatable=0;part=1;html=1;whiteSpace=wrap;" vertex="1" parent="j119phLv1ULHg8OeWUtz-103">
          <mxGeometry y="50" width="310" height="210" as="geometry" />
        </mxCell>
        <mxCell id="j119phLv1ULHg8OeWUtz-105" value="RaffleFactorEntity" style="swimlane;childLayout=stackLayout;horizontal=1;startSize=50;horizontalStack=0;rounded=1;fontSize=14;fontStyle=0;strokeWidth=2;resizeParent=0;resizeLast=1;shadow=0;dashed=0;align=center;arcSize=4;whiteSpace=wrap;html=1;" vertex="1" parent="WIyWlLk6GJQsqaUBKTNV-1">
          <mxGeometry x="-20" width="360" height="260" as="geometry" />
        </mxCell>
        <mxCell id="j119phLv1ULHg8OeWUtz-106" value="执行一次完整的带有过滤的抽奖的需要知道的所有必要信息&lt;div&gt;&lt;br&gt;&lt;/div&gt;&lt;div&gt;: &lt;b&gt;是performRaffle方法的入参&lt;/b&gt;&lt;br&gt;&lt;div&gt;&lt;br&gt;&lt;/div&gt;&lt;div&gt;&lt;div&gt;&amp;nbsp; &amp;nbsp; /**&lt;/div&gt;&lt;div&gt;&amp;nbsp; &amp;nbsp; &amp;nbsp;* 策略ID&lt;/div&gt;&lt;div&gt;&amp;nbsp; &amp;nbsp; &amp;nbsp;*/&lt;/div&gt;&lt;div&gt;&amp;nbsp; &amp;nbsp; private Long strategyId;&lt;/div&gt;&lt;div&gt;&amp;nbsp; &amp;nbsp; /**&lt;/div&gt;&lt;div&gt;&amp;nbsp; &amp;nbsp; &amp;nbsp;* 用户ID&lt;/div&gt;&lt;div&gt;&amp;nbsp; &amp;nbsp; &amp;nbsp;*/&lt;/div&gt;&lt;div&gt;&amp;nbsp; &amp;nbsp; private String userId;&lt;/div&gt;&lt;/div&gt;&lt;div&gt;&lt;br&gt;&lt;/div&gt;&lt;/div&gt;" style="align=left;strokeColor=none;fillColor=none;spacingLeft=4;spacingRight=4;fontSize=12;verticalAlign=top;resizable=0;rotatable=0;part=1;html=1;whiteSpace=wrap;" vertex="1" parent="j119phLv1ULHg8OeWUtz-105">
          <mxGeometry y="50" width="360" height="210" as="geometry" />
        </mxCell>
        <mxCell id="j119phLv1ULHg8OeWUtz-107" value="RuleActionEntity" style="swimlane;childLayout=stackLayout;horizontal=1;startSize=50;horizontalStack=0;rounded=1;fontSize=14;fontStyle=0;strokeWidth=2;resizeParent=0;resizeLast=1;shadow=0;dashed=0;align=center;arcSize=4;whiteSpace=wrap;html=1;" vertex="1" parent="WIyWlLk6GJQsqaUBKTNV-1">
          <mxGeometry x="-580" y="-5" width="360" height="270" as="geometry" />
        </mxCell>
        <mxCell id="j119phLv1ULHg8OeWUtz-108" value="过滤器返回的过滤动作, 告诉了 ? 方法这个地方是放行还是拦截&lt;br&gt;&lt;br&gt;+ code : 有两个值&amp;nbsp; ALLOW 和 TAKE_OVER, 分别对应着放行和接管&lt;div&gt;+ info : 接管还是放行的详细信息&lt;/div&gt;&lt;div&gt;+ ruleModel : 过滤的规则&lt;/div&gt;&lt;div&gt;+ T data 用于装载RaffleBeforeEntity等内聚类, 是装有具体的过滤行为数据&lt;/div&gt;" style="align=left;strokeColor=none;fillColor=none;spacingLeft=4;spacingRight=4;fontSize=12;verticalAlign=top;resizable=0;rotatable=0;part=1;html=1;whiteSpace=wrap;" vertex="1" parent="j119phLv1ULHg8OeWUtz-107">
          <mxGeometry y="50" width="360" height="220" as="geometry" />
        </mxCell>
        <mxCell id="j119phLv1ULHg8OeWUtz-117" style="edgeStyle=orthogonalEdgeStyle;rounded=0;orthogonalLoop=1;jettySize=auto;html=1;" edge="1" parent="WIyWlLk6GJQsqaUBKTNV-1" source="j119phLv1ULHg8OeWUtz-111" target="j119phLv1ULHg8OeWUtz-108">
          <mxGeometry relative="1" as="geometry">
            <mxPoint x="-399.9999999999998" y="270" as="targetPoint" />
          </mxGeometry>
        </mxCell>
        <mxCell id="j119phLv1ULHg8OeWUtz-111" value="RuleActionEntity.RaffleEntity" style="swimlane;childLayout=stackLayout;horizontal=1;startSize=50;horizontalStack=0;rounded=1;fontSize=14;fontStyle=0;strokeWidth=2;resizeParent=0;resizeLast=1;shadow=0;dashed=0;align=center;arcSize=4;whiteSpace=wrap;html=1;" vertex="1" collapsed="1" parent="WIyWlLk6GJQsqaUBKTNV-1">
          <mxGeometry x="-510" y="350" width="220" height="50" as="geometry">
            <mxRectangle x="-580" y="345" width="360" height="270" as="alternateBounds" />
          </mxGeometry>
        </mxCell>
        <mxCell id="j119phLv1ULHg8OeWUtz-112" value="RuleActionEntity的内聚类, 用于规范类型, 是RaffleBeforeEntity等类的父类" style="align=left;strokeColor=none;fillColor=none;spacingLeft=4;spacingRight=4;fontSize=12;verticalAlign=top;resizable=0;rotatable=0;part=1;html=1;whiteSpace=wrap;" vertex="1" parent="j119phLv1ULHg8OeWUtz-111">
          <mxGeometry y="50" width="360" height="220" as="geometry" />
        </mxCell>
        <mxCell id="j119phLv1ULHg8OeWUtz-116" style="edgeStyle=orthogonalEdgeStyle;rounded=0;orthogonalLoop=1;jettySize=auto;html=1;entryX=0.5;entryY=1;entryDx=0;entryDy=0;" edge="1" parent="WIyWlLk6GJQsqaUBKTNV-1" source="j119phLv1ULHg8OeWUtz-114" target="j119phLv1ULHg8OeWUtz-112">
          <mxGeometry relative="1" as="geometry" />
        </mxCell>
        <mxCell id="j119phLv1ULHg8OeWUtz-114" value="RuleActionEntity.RaffleBeforeEntity" style="swimlane;childLayout=stackLayout;horizontal=1;startSize=50;horizontalStack=0;rounded=1;fontSize=14;fontStyle=0;strokeWidth=2;resizeParent=0;resizeLast=1;shadow=0;dashed=0;align=center;arcSize=4;whiteSpace=wrap;html=1;" vertex="1" parent="WIyWlLk6GJQsqaUBKTNV-1">
          <mxGeometry x="-580" y="470" width="360" height="270" as="geometry" />
        </mxCell>
        <mxCell id="j119phLv1ULHg8OeWUtz-115" value="&lt;div&gt;装载了执行具体的过滤行为所需要的信息&lt;/div&gt;&lt;div&gt;&lt;br&gt;&lt;/div&gt;+ strategyId&lt;div&gt;+ ruleWeightValueKey&lt;/div&gt;&lt;div&gt;+ awardId&lt;/div&gt;" style="align=left;strokeColor=none;fillColor=none;spacingLeft=4;spacingRight=4;fontSize=12;verticalAlign=top;resizable=0;rotatable=0;part=1;html=1;whiteSpace=wrap;" vertex="1" parent="j119phLv1ULHg8OeWUtz-114">
          <mxGeometry y="50" width="360" height="220" as="geometry" />
        </mxCell>
        <mxCell id="j119phLv1ULHg8OeWUtz-119" value="RuleMatterEntity" style="swimlane;childLayout=stackLayout;horizontal=1;startSize=50;horizontalStack=0;rounded=1;fontSize=14;fontStyle=0;strokeWidth=2;resizeParent=0;resizeLast=1;shadow=0;dashed=0;align=center;arcSize=4;whiteSpace=wrap;html=1;" vertex="1" parent="WIyWlLk6GJQsqaUBKTNV-1">
          <mxGeometry x="-420" y="-290" width="280" height="220" as="geometry" />
        </mxCell>
        <mxCell id="j119phLv1ULHg8OeWUtz-120" value="用于传递能让过滤器执行过滤操作的最小信息&lt;div&gt;&lt;br&gt;&lt;/div&gt;&lt;div&gt;+ userId&lt;/div&gt;&lt;div&gt;+ strategyId&lt;/div&gt;&lt;div&gt;+ awardId&lt;/div&gt;&lt;div&gt;+ ruleModel&lt;/div&gt;" style="align=left;strokeColor=none;fillColor=none;spacingLeft=4;spacingRight=4;fontSize=12;verticalAlign=top;resizable=0;rotatable=0;part=1;html=1;whiteSpace=wrap;" vertex="1" parent="j119phLv1ULHg8OeWUtz-119">
          <mxGeometry y="50" width="280" height="170" as="geometry" />
        </mxCell>
        <mxCell id="j119phLv1ULHg8OeWUtz-123" value="" style="group" vertex="1" connectable="0" parent="WIyWlLk6GJQsqaUBKTNV-1">
          <mxGeometry x="2180" y="130" width="1050" height="1270" as="geometry" />
        </mxCell>
        <mxCell id="j119phLv1ULHg8OeWUtz-121" value="" style="whiteSpace=wrap;html=1;fillColor=none;" vertex="1" parent="j119phLv1ULHg8OeWUtz-123">
          <mxGeometry y="40" width="1050" height="1230" as="geometry" />
        </mxCell>
        <mxCell id="j119phLv1ULHg8OeWUtz-122" value="&lt;font style=&quot;font-size: 23px;&quot;&gt;过滤流程&lt;/font&gt;" style="text;html=1;align=center;verticalAlign=middle;resizable=0;points=[];autosize=1;strokeColor=none;fillColor=none;" vertex="1" parent="j119phLv1ULHg8OeWUtz-123">
          <mxGeometry x="30" y="-20" width="120" height="40" as="geometry" />
        </mxCell>
        <mxCell id="j119phLv1ULHg8OeWUtz-125" value="" style="group" vertex="1" connectable="0" parent="WIyWlLk6GJQsqaUBKTNV-1">
          <mxGeometry x="860" y="90" width="1050" height="1300" as="geometry" />
        </mxCell>
        <mxCell id="j119phLv1ULHg8OeWUtz-96" value="" style="whiteSpace=wrap;html=1;fillColor=none;" vertex="1" parent="j119phLv1ULHg8OeWUtz-125">
          <mxGeometry y="70" width="1050" height="1230" as="geometry" />
        </mxCell>
        <mxCell id="j119phLv1ULHg8OeWUtz-98" value="核心抽奖流程" style="text;html=1;align=center;verticalAlign=middle;resizable=0;points=[];autosize=1;strokeColor=none;fillColor=none;fontSize=23;labelBorderColor=none;" vertex="1" parent="j119phLv1ULHg8OeWUtz-125">
          <mxGeometry x="10" width="160" height="40" as="geometry" />
        </mxCell>
      </root>
    </mxGraphModel>
  </diagram>
</mxfile>
